HIERARCHY
ROOT Hips
{
	OFFSET 0.000000 0.000000 0.000000
	CHANNELS 6 Xposition Yposition Zposition Xrotation Yrotation Zrotation
	JOINT Chest
	{
		OFFSET 0.000000 0.009282 11.569106
		CHANNELS 3 Xrotation Yrotation Zrotation
		JOINT Chest2
		{
			OFFSET 0.000000 -0.016863 9.269641
			CHANNELS 3 Xrotation Yrotation Zrotation
			JOINT Chest3
			{
				OFFSET 0.000000 0.000000 8.374491
				CHANNELS 3 Xrotation Yrotation Zrotation
				JOINT Chest4
				{
					OFFSET 0.000000 0.000000 8.374493
					CHANNELS 3 Xrotation Yrotation Zrotation
					JOINT Neck
					{
						OFFSET 0.000000 -0.000001 12.152554
						CHANNELS 3 Xrotation Yrotation Zrotation
						JOINT Head
						{
							OFFSET 0.000000 -0.040100 7.802319
							CHANNELS 3 Xrotation Yrotation Zrotation
							End Site
							{
								OFFSET 0.000000 -0.020946 14.853096
							}
						}
					}
					JOINT RightCollar
					{
						OFFSET -2.894404 0.000000 6.791374
						CHANNELS 3 Xrotation Yrotation Zrotation
						JOINT RightShoulder
						{
							OFFSET -13.574684 0.000000 0.000000
							CHANNELS 3 Xrotation Yrotation Zrotation
							JOINT RightElbow
							{
								OFFSET -23.923903 0.000000 0.000000
								CHANNELS 3 Xrotation Yrotation Zrotation
								JOINT RightWrist
								{
									OFFSET -19.846718 -0.012765 0.000000
									CHANNELS 3 Xrotation Yrotation Zrotation
									End Site
									{
										OFFSET -14.973145 0.000000 0.000000
									}
								}
							}
						}
					}
					JOINT LeftCollar
					{
						OFFSET 2.894404 0.000000 6.791374
						CHANNELS 3 Xrotation Yrotation Zrotation
						JOINT LeftShoulder
						{
							OFFSET 13.574684 0.000000 0.000000
							CHANNELS 3 Xrotation Yrotation Zrotation
							JOINT LeftElbow
							{
								OFFSET 23.923903 0.000000 0.000000
								CHANNELS 3 Xrotation Yrotation Zrotation
								JOINT LeftWrist
								{
									OFFSET 19.846718 -0.012765 0.000000
									CHANNELS 3 Xrotation Yrotation Zrotation
									End Site
									{
										OFFSET 14.973145 0.000000 0.000000
									}
								}
							}
						}
					}
				}
			}
		}
	}
	JOINT RightHip
	{
		OFFSET -9.469263 -0.004642 0.045487
		CHANNELS 3 Xrotation Yrotation Zrotation
		JOINT RightKnee
		{
			OFFSET 0.000000 -0.002666 -40.478676
			CHANNELS 3 Xrotation Yrotation Zrotation
			JOINT RightAnkle
			{
				OFFSET 0.000000 -0.049110 -35.224068
				CHANNELS 3 Xrotation Yrotation Zrotation
				JOINT RightToe
				{
					OFFSET 0.000000 -12.539530 -6.151390
					CHANNELS 3 Xrotation Yrotation Zrotation
					End Site
					{
						OFFSET 0.000000 -5.044995 -1.291870
					}
				}
			}
		}
	}
	JOINT LeftHip
	{
		OFFSET 9.469263 -0.004642 0.045487
		CHANNELS 3 Xrotation Yrotation Zrotation
		JOINT LeftKnee
		{
			OFFSET 0.000000 -0.002666 -40.478676
			CHANNELS 3 Xrotation Yrotation Zrotation
			JOINT LeftAnkle
			{
				OFFSET 0.000000 -0.049110 -35.224068
				CHANNELS 3 Xrotation Yrotation Zrotation
				JOINT LeftToe
				{
					OFFSET 0.000000 -12.539530 -6.151390
					CHANNELS 3 Xrotation Yrotation Zrotation
					End Site
					{
						OFFSET 0.000000 -5.044995 -1.291870
					}
				}
			}
		}
	}
}
MOTION
Frames: 15
Frame Time: 0.016667
-10.938934 -1.076804 82.235306 2.540452 8.087697 -103.895817 8.326937 -0.147645 0.732195 3.698734 -0.079664 0.326067 3.698735 -0.079664 0.326067 2.774009 -0.061724 0.244078 26.606242 0.500589 0.613348 13.223193 0.785852 1.232168 -14.851727 -11.472686 -1.597965 22.044767 -38.115194 -6.267509 65.849806 22.272818 73.573691 -60.297047 45.908768 84.931497 -6.238833 6.809994 -2.806471 18.226247 38.943037 11.364409 60.520503 -11.687909 -68.690810 -30.173153 -33.346052 -82.678019 9.657549 -6.554147 -13.604944 1.048627 -4.931342 0.916569 -3.535441 8.464760 -1.792998 -0.035839 -0.312854 0.006246 -6.451412 -9.549298 32.041367 1.446387 3.696987 21.389352 14.928224 -4.665537 5.717140 0.357587 0.793177 -0.012714 
-11.011553 -1.131562 82.233665 2.617759 8.004934 -103.998987 8.257770 -0.218850 0.725281 3.668084 -0.110301 0.320079 3.668084 -0.110301 0.320079 2.751002 -0.084651 0.239407 26.551544 0.528815 0.603989 13.121362 0.839151 1.221486 -14.914435 -11.476731 -1.593631 22.057763 -38.059757 -6.358123 65.871171 22.278202 73.642779 -60.441799 45.866086 85.055758 -6.249685 6.809525 -2.806514 18.241518 39.013040 11.402636 60.579755 -11.642563 -68.628505 -30.057873 -33.339270 -82.503754 9.632475 -6.605586 -13.471969 1.035563 -4.877384 0.899273 -3.507412 8.467362 -1.798846 -0.049829 -0.321066 0.003087 -6.218424 -9.400840 32.454457 1.147044 3.798054 21.368633 14.532783 -4.826799 5.687220 0.489561 0.579665 0.003598 
-11.079267 -1.190577 82.233765 2.694549 7.915335 -104.093504 8.194417 -0.290918 0.716434 3.639139 -0.138910 0.314448 3.639138 -0.138910 0.314446 2.729280 -0.106060 0.235017 26.494883 0.542867 0.596597 13.016018 0.866042 1.211402 -14.942079 -11.469840 -1.572942 22.098324 -37.996909 -6.390581 65.883424 22.294644 73.701607 -60.626665 45.822646 85.220093 -6.269611 6.832570 -2.814953 18.286882 39.053925 11.407189 60.632245 -11.532642 -68.578508 -29.948156 -33.324008 -82.360170 9.597246 -6.650296 -13.421252 1.032412 -4.830702 0.890900 -3.496234 8.443037 -1.761208 -0.056037 -0.308164 -0.006160 -6.054590 -9.355109 32.874537 0.904039 3.889430 21.315270 14.321551 -4.932746 5.729231 0.501021 0.409626 0.018551 
-11.139889 -1.250018 82.233063 2.776117 7.818039 -104.166279 8.139597 -0.361909 0.702712 3.613765 -0.164379 0.307039 3.613765 -0.164379 0.307035 2.710239 -0.125106 0.229313 26.435458 0.540732 0.590229 12.905662 0.863015 1.199705 -14.905126 -11.440679 -1.569874 22.148581 -37.936687 -6.325734 65.891183 22.331558 73.732316 -60.815813 45.778516 85.383628 -6.264503 6.856886 -2.825500 18.346744 39.087622 11.360911 60.669435 -11.427599 -68.537383 -29.865125 -33.324541 -82.266432 9.538873 -6.704214 -13.444628 1.058362 -4.777307 0.918972 -3.510425 8.386660 -1.695633 -0.050772 -0.273198 -0.027536 -6.006032 -9.464272 33.230738 0.858189 3.976899 21.190930 14.262116 -4.978617 5.856581 0.396173 0.317357 0.033471 
-11.206724 -1.312593 82.248726 2.820927 7.736775 -104.268350 8.103662 -0.370366 0.721512 3.595995 -0.183955 0.302956 3.595995 -0.183955 0.302959 2.696906 -0.139755 0.226144 26.366774 0.521977 0.586819 12.778277 0.828805 1.189861 -14.779993 -11.376810 -1.598758 22.197719 -37.899347 -6.134926 65.887222 22.354251 73.738914 -60.962389 45.759395 85.503464 -6.253148 6.873775 -2.865309 18.425492 39.119239 11.296805 60.665276 -11.368520 -68.514877 -29.811921 -33.332754 -82.199284 9.463706 -6.711754 -13.449997 1.133175 -4.707566 0.946456 -3.527507 8.293897 -1.608721 -0.066023 -0.223731 -0.054514 -6.061206 -9.640154 33.469430 0.978651 4.069906 21.115622 14.250120 -5.006891 6.053006 0.283786 0.266227 0.081062 
-11.267537 -1.369724 82.253410 2.896560 7.648027 -104.409475 8.075569 -0.392338 0.772025 3.582529 -0.192497 0.304877 3.582530 -0.192497 0.304874 2.686800 -0.146166 0.227536 26.288097 0.488874 0.585174 12.632463 0.767838 1.180145 -14.580676 -11.281495 -1.650665 22.196580 -37.891362 -5.868606 65.914262 22.339785 73.734720 -61.033990 45.763005 85.548597 -6.267809 6.876003 -2.922614 18.552556 39.143705 11.238154 60.612506 -11.352814 -68.512890 -29.804896 -33.323496 -82.153324 9.359110 -6.754807 -13.409667 1.256179 -4.602056 0.923184 -3.581352 8.143105 -1.508359 -0.072429 -0.148241 -0.112416 -6.114803 -9.873523 33.601379 1.113408 4.185329 21.131695 14.388980 -5.034696 6.366982 0.072447 0.240184 0.151892 
-11.329694 -1.449808 82.267570 2.925115 7.548984 -104.568735 8.017974 -0.364978 0.825156 3.574433 -0.190752 0.314619 3.574433 -0.190752 0.314615 2.680724 -0.144910 0.234855 26.204238 0.448516 0.580440 12.477085 0.694205 1.163127 -14.429987 -11.173793 -1.735866 22.224285 -37.888019 -5.580079 65.983739 22.269330 73.748578 -61.018205 45.782457 85.521031 -6.263850 6.861265 -2.988000 18.644774 39.160002 11.202142 60.538029 -11.324408 -68.530273 -29.804907 -33.315491 -82.124330 9.217187 -6.737328 -13.376746 1.418087 -4.488754 0.855037 -3.682112 7.949271 -1.362873 -0.064428 -0.064022 -0.178707 -6.137847 -10.049619 33.744000 1.187070 4.303703 21.146735 14.594958 -5.084727 6.593073 -0.115171 0.242555 0.214587 
-11.410115 -1.428433 82.282806 2.946210 7.356201 -104.848854 7.866158 -0.331756 0.977566 3.567934 -0.184574 0.332551 3.567934 -0.184574 0.332554 2.675849 -0.140378 0.248348 26.118548 0.410503 0.569092 12.318306 0.626341 1.134411 -14.349756 -11.094818 -1.799963 22.271674 -37.872542 -5.348609 66.084198 22.171405 73.782838 -60.982354 45.818832 85.479469 -6.281198 6.839218 -3.015634 18.679905 39.160726 11.200154 60.500334 -11.294527 -68.524918 -29.815589 -33.297958 -82.158092 9.009007 -6.735880 -13.254880 1.608982 -4.395978 0.777288 -3.791015 7.690580 -0.976558 -0.102503 0.104507 -0.410808 -6.225045 -10.125000 34.106013 1.191486 4.366713 21.062565 14.818632 -5.165358 6.556917 -0.276827 0.214004 0.409880 
-11.502029 -1.498181 82.304131 2.963831 7.223796 -105.117725 7.775684 -0.274516 1.099816 3.558237 -0.180037 0.358812 3.558238 -0.180037 0.358813 2.668570 -0.137122 0.268072 26.032013 0.378051 0.547210 12.157863 0.571039 1.087537 -14.296469 -11.067969 -1.803696 22.286648 -37.852779 -5.222760 66.185523 22.064344 73.816675 -61.057001 45.866465 85.540312 -6.326023 6.819596 -3.017525 18.640752 39.156863 11.228125 60.512908 -11.294263 -68.483957 -29.804623 -33.270002 -82.191594 8.854538 -6.685101 -13.205633 1.778439 -4.318091 0.817080 -3.882591 7.495987 -0.806283 -0.115849 0.185725 -0.485079 -6.222289 -10.149336 34.551106 1.141152 4.396310 20.897133 15.007041 -5.302328 6.733939 -0.342301 0.239579 0.463492 
-11.598623 -1.588510 82.326477 2.998484 7.144300 -105.351283 7.738364 -0.223764 1.177755 3.545119 -0.179861 0.386054 3.545118 -0.179861 0.386052 2.658726 -0.137142 0.288506 25.945722 0.355658 0.516228 11.997781 0.536275 1.026163 -14.225272 -11.065182 -1.763494 22.271495 -37.847263 -5.161988 66.278250 21.976528 73.828983 -61.229210 45.883749 85.683562 -6.385278 6.816362 -3.002595 18.564799 39.164212 11.281474 60.541970 -11.355075 -68.415246 -29.758526 -33.219588 -82.195125 8.780922 -6.655310 -13.217946 1.880789 -4.223947 0.924572 -3.922277 7.357744 -0.799889 -0.139894 0.194922 -0.443177 -6.140944 -10.168239 34.879092 1.054209 4.439184 20.780989 15.247207 -5.514197 6.947283 -0.420299 0.336103 0.403975 
-11.677533 -1.717894 82.347725 3.033465 7.082224 -105.516813 7.712177 -0.188015 1.183319 3.531221 -0.180545 0.413164 3.531221 -0.180545 0.413161 2.648294 -0.137801 0.308841 25.852432 0.340321 0.478467 11.824641 0.515993 0.953929 -14.175891 -11.061997 -1.747290 22.310683 -37.850682 -5.096931 66.329265 21.921347 73.824154 -61.442852 45.891822 85.863592 -6.451725 6.835362 -2.987322 18.515617 39.172798 11.327727 60.547059 -11.405329 -68.364306 -29.691065 -33.174311 -82.168371 8.724388 -6.628902 -13.237028 1.928413 -4.115675 0.925717 -3.946491 7.198248 -0.782403 -0.145032 0.193308 -0.375989 -6.038533 -10.185393 34.948469 0.958195 4.498300 20.755403 15.500923 -5.760265 7.156129 -0.493381 0.479495 0.281932 
-11.764619 -1.785536 82.369499 3.135822 6.964148 -105.789966 7.645061 -0.226572 1.286949 3.518743 -0.181435 0.439047 3.518743 -0.181435 0.439048 2.638926 -0.138610 0.328252 25.746224 0.335060 0.436717 11.627381 0.515116 0.876691 -14.140220 -11.056167 -1.737202 22.348475 -37.858642 -5.061412 66.367849 21.907927 73.795481 -61.654096 45.867312 86.045589 -6.496261 6.855950 -2.981029 18.499480 39.193879 11.351838 60.522060 -11.420252 -68.341664 -29.629019 -33.152055 -82.150920 8.661987 -6.679587 -13.075076 1.961710 -3.997455 0.812134 -3.938853 6.932544 -0.571837 -0.201855 0.279226 -0.450926 -6.019984 -10.256607 34.939700 0.904207 4.551929 20.751406 15.697201 -5.929154 7.224043 -0.546712 0.512251 0.371658 
-11.826393 -1.891073 82.389008 3.212936 6.879078 -106.004898 7.604873 -0.241994 1.311656 3.506234 -0.181352 0.463992 3.506235 -0.181352 0.463990 2.629536 -0.138681 0.346964 25.622189 0.338332 0.395817 11.397023 0.529707 0.803025 -14.099462 -11.045512 -1.726821 22.331409 -37.854039 -5.064465 66.424437 21.928611 73.765715 -61.818171 45.852470 86.185506 -6.528530 6.862603 -2.958728 18.513578 39.230858 11.343882 60.485901 -11.405398 -68.341623 -29.562186 -33.132571 -82.110383 8.598938 -6.682837 -12.972706 1.999448 -3.900920 0.674022 -3.958548 6.659708 -0.391310 -0.220290 0.357441 -0.477347 -5.986890 -10.345304 34.773009 0.906254 4.605266 20.779555 15.889185 -6.101564 7.368744 -0.590626 0.596919 0.380903 
-11.880941 -2.005519 82.402374 3.286832 6.819293 -106.253845 7.597987 -0.241142 1.338970 3.495346 -0.178460 0.491048 3.495345 -0.178460 0.491046 2.621364 -0.136658 0.367275 25.474963 0.348629 0.356339 11.123552 0.556877 0.733714 -14.038668 -11.021751 -1.716985 22.254740 -37.844777 -5.076221 66.512382 21.955964 73.734870 -61.940964 45.852894 86.282003 -6.564859 6.858751 -2.939049 18.506587 39.281767 11.364609 60.453581 -11.389595 -68.345434 -29.490838 -33.114943 -82.050058 8.561157 -6.657850 -12.921893 2.033483 -3.847474 0.632695 -3.994965 6.430790 -0.277828 -0.210920 0.409612 -0.453905 -5.913413 -10.500212 34.609088 0.934359 4.684467 20.873048 16.122137 -6.238425 7.676660 -0.659239 0.669886 0.339943 
-11.938544 -2.157768 82.408554 3.337697 6.839269 -106.503133 7.667101 -0.192832 1.336021 3.482986 -0.171670 0.518999 3.482987 -0.171670 0.518994 2.612093 -0.131715 0.388284 25.311394 0.362404 0.321175 10.819721 0.589497 0.673239 -13.987081 -10.989921 -1.717954 22.205556 -37.837120 -5.068418 66.609828 21.958054 73.702946 -62.013712 45.864488 86.327867 -6.610350 6.841897 -2.917156 18.475148 39.337033 11.409150 60.437311 -11.366516 -68.348706 -29.391434 -33.105828 -81.979079 8.592715 -6.584941 -12.957592 2.050449 -3.804826 0.696365 -4.072668 6.286454 -0.316225 -0.136848 0.376409 -0.288199 -5.740981 -10.680047 34.525968 0.957732 4.785129 20.995042 16.436876 -6.362817 8.052994 -0.762827 0.753074 0.152229 
